<?xml version="1.0" encoding="utf-8"?>
<!-- Generator: Adobe Illustrator 21.1.0, SVG Export Plug-In . SVG Version: 6.00 Build 0)  -->
<svg version="1.1" id="Layer_1" xmlns="http://www.w3.org/2000/svg" xmlns:xlink="http://www.w3.org/1999/xlink" x="0px" y="0px"
	 viewBox="0 0 741 147" style="enable-background:new 0 0 741 147;" xml:space="preserve">
<style type="text/css">
	.st0{fill:#ffffff;}
</style>
<g>
	<path class="st0" d="M60.5,96.4c0-14.4,4.9-26.5,14.8-36.4c9.9-9.9,21.9-14.8,36.2-14.8c14.1,0,26.1,4.9,36,14.8
		c9.9,9.9,14.8,22,14.8,36.4s-4.9,26.6-14.8,36.6s-22,15-36.4,15c-14,0-25.9-5-35.8-15C65.5,123,60.5,110.8,60.5,96.4z M111.5,67.8
		c-7.5,0-13.9,2.9-19.2,8.6c-5.3,5.7-8,12.6-8,20.6c0,7.7,2.7,14.4,8.1,20.1c5.4,5.7,11.8,8.5,19.1,8.5s13.7-2.9,19-8.6
		c5.3-5.7,8-12.5,8-20.4s-2.6-14.6-7.9-20.3C125.4,70.6,119,67.8,111.5,67.8z"/>
	<path class="st0" d="M169.9,96.4c0-14.4,4.9-26.5,14.8-36.4s21.9-14.8,36.2-14.8c14.1,0,26.1,4.9,36,14.8
		c9.9,9.9,14.8,22,14.8,36.4s-4.9,26.6-14.8,36.6s-22,15-36.4,15c-14,0-25.9-5-35.8-15C174.9,123,169.9,110.8,169.9,96.4z
		 M220.9,67.8c-7.5,0-13.9,2.9-19.2,8.6c-5.3,5.7-8,12.6-8,20.6c0,7.7,2.7,14.4,8.1,20.1c5.4,5.7,11.8,8.5,19.1,8.5
		c7.3,0,13.7-2.9,19-8.6c5.3-5.7,8-12.5,8-20.4S245.3,82,240,76.3C234.8,70.6,228.4,67.8,220.9,67.8z"/>
	<path class="st0" d="M283.1,146.2V2h23l0.2,82h4c8.7,0,16.4-2.6,23.1-7.7c6.7-5.1,10.4-11.2,11.1-18.1l0.6-10.2h23.6l-0.8,13.4
		c0,6.5-2.2,12.7-6.5,18.4s-10.1,10.3-17.3,13.8c2,1.1,3.4,1.8,4.2,2.2c1.6,0.9,3.1,2,4.6,3.2c4.8,4.1,8.6,9.1,11.4,15
		s4.2,11.9,4.2,18.2v14h-23l-0.4-13.4c0-8.4-3.3-15.2-9.8-20.5s-15.1-7.9-25.6-7.9h-3.4v41.8H283.1z"/>
	<path class="st0" d="M381.3,146.2V43.4c0-13.5,3.9-24.1,11.6-32c7.7-7.9,18.3-11.8,31.8-11.8l8.4,0.6v20.4
		c-2.1-0.4-4.3-0.6-6.4-0.6c-6.7,0-12,1.8-16.1,5.3s-6.1,8.2-6.1,14.1V48h18.2v21.4h-18.2v76.8H381.3z"/>
	<path class="st0" d="M496.7,144.2c-4.7,1.6-8.2,2.6-10.7,3.1s-5.3,0.7-8.5,0.7c-14.4,0-26.5-4.8-36.3-14.5s-14.7-21.7-14.7-36.1
		c0-14.7,5.1-27.1,15.2-37.2C451.8,50.1,464.2,45,478.9,45c14.9,0,27.1,5.1,36.4,15.2c9.3,10.1,14,23.3,14,39.6v46.4h-23.4v-45.6
		c0-9.9-2.5-17.8-7.6-23.7S486.5,68,478.1,68c-7.7,0-14.3,2.8-19.7,8.3s-8.1,12.1-8.1,19.8c0,8.2,2.9,15.1,8.7,20.6s13,8.3,21.5,8.3
		c2.9,0,5.4-0.3,7.4-0.8s4.9-1.7,8.8-3.6L496.7,144.2L496.7,144.2z"/>
	<path class="st0" d="M740.9,76.9l-52.6,40l-10.8-13.4l36.6-27.8c-5.1-5.9-11.2-8.8-18.4-8.8c-8,0-15.1,3.1-21.2,9.2
		c-6.1,6.1-9.2,13.1-9.2,21c0,7.6,2.9,14.3,8.6,20c5.7,5.7,12.4,8.6,20,8.6c10,0,18.6-4.9,25.8-14.6l18.8,10.8
		c-2.8,4.5-4.9,7.6-6.3,9.3c-1.4,1.7-3.6,3.6-6.5,5.9c-9.1,6.9-19.6,10.4-31.6,10.4c-14.4,0-26.4-4.8-36.1-14.3
		c-9.7-9.5-14.5-21.6-14.5-36.1c0-14.7,4.9-26.9,14.6-36.8c9.7-9.9,21.9-14.8,36.6-14.8c10.5,0,20.1,3,28.8,9c4,2.8,7.2,5.7,9.5,8.6
		C735.3,66,737.9,70.6,740.9,76.9z"/>
	<path class="st0" d="M589.4,125.7c-7.6,0-14.3-2.9-20-8.6c-5.7-5.7-8.6-12.4-8.6-20c0-5.4,1.4-10.3,4.3-14.9
		c1.2-1.9,2.6-3.6,4.3-5.3c5.7-5.7,12.4-8.6,20-8.6c10,0,18.6,4.9,25.8,14.6L634,72.1c-2.8-4.5-4.9-7.6-6.3-9.3
		c-1.4-1.7-3.6-3.6-6.5-5.9c-9.1-6.9-19.6-10.4-31.6-10.4c-14.4,0-26.4,4.8-36.1,14.3c-9.7,9.5-14.5,21.6-14.5,36.1V97v0.1
		c0,14.5,4.8,26.6,14.5,36.1s21.7,14.3,36.1,14.3c12,0,22.5-3.5,31.6-10.4c2.9-2.3,5.1-4.2,6.5-5.9s3.5-4.8,6.3-9.3l-18.8-10.8
		C608,120.8,599.4,125.7,589.4,125.7z"/>
	<path class="st0" d="M24.3,100v8.5c0,5.8,2,10.5,6.1,14s9.4,5.3,16.1,5.3c2.1,0,4.3-0.2,6.4-0.6v20.2l-8.4,0.6
		c-13.5,0-24.1-3.9-31.8-11.7S1.1,117.9,1.1,104.6V2.6h23.2V57v21.8V100z"/>
</g>
</svg>
