<svg width="519.5024169921875px" height="129.182568359375px" xmlns="http://www.w3.org/2000/svg" viewBox="0 0 500 150" style="background: rgba(0, 0, 0, 0);"><filter id="editing-goldstamp"><feFlood flood-color="#ffffff" result="flood"></feFlood><feMorphology operator="dilate" radius="1" in="SourceGraphic" result="outline"></feMorphology><feComposite operator="in" in="flood" in2="outline" result="outline2"></feComposite><feGaussianBlur stdDeviation="4" in="SourceAlpha" result="blur"></feGaussianBlur><feSpecularLighting surfaceScale="2" specularConstant="0.7" specularExponent="10" lighting-color="#white" in="blur" result="specular"><fePointLight x="200" y="-1000" z="300"></fePointLight></feSpecularLighting><feComposite operator="in" in="specular" in2="SourceGraphic" result="specular2"></feComposite><feComposite in="SourceGraphic" in2="specular2" operator="arithmetic" k1="3" k2="2" k3="1" k4="0" result="specular3"></feComposite><feMerge><feMergeNode in="outline2"></feMergeNode><feMergeNode in="specular3"></feMergeNode></feMerge></filter><g filter="url(#editing-goldstamp)"><g transform="translate(67.40937435626984, 99.92437553405762)"><path d="M32.88-40.97L32.88-40.97L32.88-40.97Q32.88-35.72 25.19-32.34L25.19-32.34L25.19-32.34Q31.56-31.16 33.50-26.56L33.50-26.56L33.50-26.56Q34.13-25.03 34.13-22.52L34.13-22.52L34.13-22.52Q34.13-20 33.39-17.08L33.39-17.08L33.39-17.08Q32.66-14.16 31.08-11.58L31.08-11.58L31.08-11.58Q29.50-9 27.06-6.88L27.06-6.88L27.06-6.88Q24.63-4.75 21.22-3.22L21.22-3.22L21.22-3.22Q14.06 0 3.53 0L3.53 0L3.53 0Q4.53-2.38 4.70-3.97L4.70-3.97L4.70-3.97Q4.88-5.56 5-7.38L5-7.38L5-7.38Q5.25-11.06 5.25-17.28L5.25-17.28L5.25-17.28Q5.25-24.81 5-31.03L5-31.03L4.66-39.63L4.66-39.63Q4.53-42.88 4.09-44.16L4.09-44.16L4.09-44.16Q3.41-46.19 1.84-47.81L1.84-47.81L18.38-47.81L18.38-47.81Q25.94-47.81 29.31-46.31L29.31-46.31L29.31-46.31Q32.88-44.75 32.88-40.97ZM12.53-24.78L12.53-24.78L12.56-8.91L12.56-8.91Q12.56-7.13 12.95-6.22L12.95-6.22L12.95-6.22Q13.34-5.31 14.53-5.31L14.53-5.31L14.53-5.31Q19.34-5.31 22.56-9.88L22.56-9.88L22.56-9.88Q25.88-14.56 25.88-22.06L25.88-22.06L25.88-22.06Q25.88-25.78 24.22-27.59L24.22-27.59L24.22-27.59Q22.03-30 16.38-30L16.38-30L16.38-30Q15.09-30 14.34-29.89L14.34-29.89L14.34-29.89Q13.59-29.78 13.19-29.28L13.19-29.28L13.19-29.28Q12.53-28.47 12.53-24.78ZM22.86-35.63L22.86-35.63L22.86-35.63Q23.81-36.56 24.22-37.63L24.22-37.63L24.22-37.63Q24.63-38.69 24.63-39.61L24.63-39.61L24.63-39.61Q24.63-40.53 24.36-41.47L24.36-41.47L24.36-41.47Q24.09-42.41 23.31-43.13L23.31-43.13L23.31-43.13Q21.56-44.69 17.31-44.69L17.31-44.69L17.31-44.69Q14.09-44.69 13.47-44.05L13.47-44.05L13.47-44.05Q12.84-43.41 12.69-42.34L12.69-42.34L12.69-42.34Q12.53-41.28 12.53-39.61L12.53-39.61L12.53-39.61Q12.53-37.94 12.63-36.83L12.63-36.83L12.63-36.83Q12.72-35.72 13.13-34.97L13.13-34.97L13.13-34.97Q13.91-33.44 16.33-33.44L16.33-33.44L16.33-33.44Q18.75-33.44 20.33-34.06L20.33-34.06L20.33-34.06Q21.91-34.69 22.86-35.63ZM49.47 0L40.25 0L40.25 0Q41.69-4.94 41.69-16.97L41.69-16.97L41.69-16.97Q41.69-25.53 40.31-28.66L40.31-28.66L40.31-28.66Q39.75-29.94 38.31-31.56L38.31-31.56L49.41-31.56L49.41-31.56Q48.84-29.59 48.50-26.16L48.50-26.16L48.50-26.16Q51.44-29.84 56.69-31.38L56.69-31.38L56.69-31.38Q58.94-32.03 59.97-33.44L59.97-33.44L59.97-33.44Q61-30.97 61-29.19L61-29.19L61-29.19Q61-27.41 60.81-25.89L60.81-25.89L60.81-25.89Q60.63-24.38 60.25-22.94L60.25-22.94L60.25-22.94Q59.44-19.84 58.09-18.13L58.09-18.13L58.09-18.13Q56.94-24.22 54.50-25.25L54.50-25.25L54.50-25.25Q51.69-26.47 49-21.94L49-21.94L49-21.94Q48.44-21 48.06-19.94L48.06-19.94L48.06-19.94Q48.03-19.22 48.03-18.47L48.03-18.47L48.03-18.47Q48.03-17.72 48.03-16.97L48.03-16.97L48.03-16.97Q48.03-4.94 49.47 0L49.47 0ZM75.08-39.97L75.08-39.97L75.08-39.97Q74.44-38.94 73.53-38.23L73.53-38.23L73.53-38.23Q72.63-37.53 71.47-37.53L71.47-37.53L71.47-37.53Q70.31-37.53 69.41-38.23L69.41-38.23L69.41-38.23Q68.50-38.94 67.88-39.97L67.88-39.97L67.88-39.97Q66.59-42.09 66.59-44.47L66.59-44.47L66.59-44.47Q66.59-47.34 69.22-48.31L69.22-48.31L69.22-48.31Q70.16-48.66 71.50-48.66L71.50-48.66L71.50-48.66Q75.22-48.66 76.13-46.03L76.13-46.03L76.13-46.03Q76.41-45.28 76.41-44.36L76.41-44.36L76.41-44.36Q76.41-43.44 76.06-42.22L76.06-42.22L76.06-42.22Q75.72-41 75.08-39.97ZM75.81 0L66.59 0L66.59 0Q68.03-4.94 68.03-16.97L68.03-16.97L68.03-16.97Q68.03-25.44 66.53-28.63L66.53-28.63L66.53-28.63Q66.16-29.44 65.69-30.13L65.69-30.13L64.66-31.56L75.75-31.56L75.75-31.56Q74.38-26.41 74.38-15.67L74.38-15.67L74.38-15.67Q74.38-4.94 75.81 0L75.81 0ZM92.97-44.06L92.97-44.06L92.97-44.06Q92.31-41.66 92.31-38.30L92.31-38.30L92.31-38.30Q92.31-34.94 92.45-34L92.45-34L92.45-34Q92.59-33.06 92.91-32.50L92.91-32.50L92.91-32.50Q93.50-31.56 95.22-31.56L95.22-31.56L103.59-31.56L103.59-31.56Q103.59-29.81 102.75-28.88L102.75-28.88L102.75-28.88Q101.22-27.19 99-27.19L99-27.19L99-27.19Q97.91-27.19 97.06-27.50L97.06-27.50L97.06-27.50Q95.53-28.13 94.69-28.13L94.69-28.13L94.69-28.13Q93.84-28.13 93.31-27.80L93.31-27.80L93.31-27.80Q92.78-27.47 92.47-26.84L92.47-26.84L92.47-26.84Q91.91-25.72 91.91-21.94L91.91-21.94L91.91-21.94Q91.91-18.16 92.14-14.19L92.14-14.19L92.14-14.19Q92.38-10.22 93.31-7.55L93.31-7.55L93.31-7.55Q94.25-4.88 96.16-3.53L96.16-3.53L96.16-3.53Q98.06-2.19 101.41-2.19L101.41-2.19L101.41-2.19Q101.41-1.22 100.09 0.13L100.09 0.13L100.09 0.13Q99.75 0.50 99.50 0.63L99.50 0.63L99.50 0.63Q93.97 0.63 91.22-0.69L91.22-0.69L91.22-0.69Q88.06-2.25 86.72-6.25L86.72-6.25L86.72-6.25Q85.38-10.31 85.38-18.28L85.38-18.28L85.38-18.28Q85.38-25.25 85-26.52L85-26.52L85-26.52Q84.63-27.78 84.31-28.19L84.31-28.19L84.31-28.19Q83.94-28.66 82.50-29.34L82.50-29.34L82.50-29.34Q84.44-30.81 86.34-34.81L86.34-34.81L87.91-38.09L87.91-38.09Q89.56-41.84 90.73-42.95L90.73-42.95L90.73-42.95Q91.91-44.06 92.97-44.06ZM116.77-39.97L116.77-39.97L116.77-39.97Q116.13-38.94 115.22-38.23L115.22-38.23L115.22-38.23Q114.31-37.53 113.16-37.53L113.16-37.53L113.16-37.53Q112-37.53 111.09-38.23L111.09-38.23L111.09-38.23Q110.19-38.94 109.56-39.97L109.56-39.97L109.56-39.97Q108.28-42.09 108.28-44.47L108.28-44.47L108.28-44.47Q108.28-47.34 110.91-48.31L110.91-48.31L110.91-48.31Q111.84-48.66 113.19-48.66L113.19-48.66L113.19-48.66Q116.91-48.66 117.81-46.03L117.81-46.03L117.81-46.03Q118.09-45.28 118.09-44.36L118.09-44.36L118.09-44.36Q118.09-43.44 117.75-42.22L117.75-42.22L117.75-42.22Q117.41-41 116.77-39.97ZM117.50 0L108.28 0L108.28 0Q109.72-4.94 109.72-16.97L109.72-16.97L109.72-16.97Q109.72-25.44 108.22-28.63L108.22-28.63L108.22-28.63Q107.84-29.44 107.38-30.13L107.38-30.13L106.34-31.56L117.44-31.56L117.44-31.56Q116.06-26.41 116.06-15.67L116.06-15.67L116.06-15.67Q116.06-4.94 117.50 0L117.50 0ZM145.09-33.41L145.09-33.41L145.09-33.41Q145.94-31.53 145.94-29.63L145.94-29.63L145.94-29.63Q145.94-27.72 145.77-26.47L145.77-26.47L145.77-26.47Q145.59-25.22 145.25-24.06L145.25-24.06L145.25-24.06Q144.47-21.44 143.03-20.03L143.03-20.03L143.03-20.03Q142.06-24.88 140.92-26.31L140.92-26.31L140.92-26.31Q139.78-27.75 138.64-28.25L138.64-28.25L138.64-28.25Q137.50-28.75 136.22-28.75L136.22-28.75L136.22-28.75Q134.94-28.75 134.13-28.50L134.13-28.50L134.13-28.50Q133.31-28.25 132.72-27.78L132.72-27.78L132.72-27.78Q131.38-26.75 131.38-25.44L131.38-25.44L131.38-25.44Q131.38-24.13 132.03-23.17L132.03-23.17L132.03-23.17Q132.69-22.22 133.77-21.39L133.77-21.39L133.77-21.39Q134.84-20.56 136.22-19.78L136.22-19.78L139.03-18.19L139.03-18.19Q142.66-16.16 144-14.81L144-14.81L144-14.81Q146.66-12.16 146.66-9.22L146.66-9.22L146.66-9.22Q146.66-5.38 144.03-2.75L144.03-2.75L144.03-2.75Q140.72 0.63 134.09 0.63L134.09 0.63L134.09 0.63Q128.06 0.63 125.03-2.19L125.03-2.19L125.03-2.19Q124.16-3 123.78-3.81L123.78-3.81L123.78-3.81Q124.03-6.16 125.88-8.22L125.88-8.22L125.88-8.22Q127.66-10.22 129.34-10.53L129.34-10.53L129.34-10.53Q129.22-10.13 129.22-9.31L129.22-9.31L129.22-9.31Q129.22-8.50 129.69-7.30L129.69-7.30L129.69-7.30Q130.16-6.09 131.03-5.06L131.03-5.06L131.03-5.06Q133-2.69 135.47-2.69L135.47-2.69L135.47-2.69Q137.94-2.69 139.09-3.81L139.09-3.81L139.09-3.81Q140.25-4.94 140.25-6.38L140.25-6.38L140.25-6.38Q140.25-7.81 139.59-8.78L139.59-8.78L139.59-8.78Q138.94-9.75 137.86-10.59L137.86-10.59L137.86-10.59Q136.78-11.44 135.41-12.22L135.41-12.22L132.59-13.81L132.59-13.81Q129-15.94 127.66-17.44L127.66-17.44L127.66-17.44Q124.97-20.44 124.97-23.97L124.97-23.97L124.97-23.97Q124.97-27.69 128.09-30L128.09-30L128.09-30Q131.06-32.19 135.50-32.19L135.50-32.19L141-31.81L141-31.81Q143-31.81 143.78-32.30L143.78-32.30L143.78-32.30Q144.56-32.78 145.09-33.41ZM181.25 0L172.03 0L172.03 0Q173.47-4.94 173.47-16.97L173.47-16.97L173.47-16.97Q173.47-22 172.94-23.67L172.94-23.67L172.94-23.67Q172.41-25.34 171.61-26.11L171.61-26.11L171.61-26.11Q170.81-26.88 169.48-26.88L169.48-26.88L169.48-26.88Q168.16-26.88 167.08-26.38L167.08-26.38L167.08-26.38Q166-25.88 165.16-25.06L165.16-25.06L165.16-25.06Q163.56-23.56 162.56-21.06L162.56-21.06L162.56-15.09L162.56-15.09Q162.56-6.31 162.91-4.22L162.91-4.22L162.91-4.22Q163.31-1.47 163.75 0L163.75 0L154.53 0L154.53 0Q155.28-2.63 155.53-6.97L155.53-6.97L155.53-6.97Q156.09-17.84 156.09-22.98L156.09-22.98L156.09-22.98Q156.09-28.13 156.06-30.02L156.06-30.02L156.06-30.02Q156.03-31.91 155.97-33.78L155.97-33.78L155.97-33.78Q155.81-40.59 155.36-42.33L155.36-42.33L155.36-42.33Q154.91-44.06 154.52-44.86L154.52-44.86L154.52-44.86Q154.13-45.66 153.66-46.31L153.66-46.31L152.59-47.78L164-47.78L164-47.78Q163.13-44.63 162.98-41.91L162.98-41.91L162.98-41.91Q162.84-39.19 162.78-37.48L162.78-37.48L162.78-37.48Q162.72-35.78 162.66-33.91L162.66-33.91L162.66-33.91Q162.56-29.53 162.56-26.19L162.56-26.19L162.56-26.19Q165.03-30.34 169.09-31.69L169.09-31.69L169.09-31.69Q170.53-32.19 172.31-32.19L172.31-32.19L172.31-32.19Q174.09-32.19 175.55-31.42L175.55-31.42L175.55-31.42Q177-30.66 177.97-29.25L177.97-29.25L177.97-29.25Q179.97-26.41 179.97-21.47L179.97-21.47L179.97-18.13L179.97-18.13Q179.97-8.56 180.23-6.14L180.23-6.14L180.23-6.14Q180.50-3.72 180.59-2.94L180.59-2.94L180.59-2.94Q180.81-1.56 181.25 0L181.25 0ZM196.50-16.56L196.50-16.56L196.50-16.56Q196.09-13.31 196.09-11.39L196.09-11.39L196.09-11.39Q196.09-9.47 196.56-7.84L196.56-7.84L196.56-7.84Q197.03-6.22 197.91-5.03L197.91-5.03L197.91-5.03Q199.78-2.50 202.66-2.50L202.66-2.50L202.66-2.50Q208.16-2.50 208.16-8.56L208.16-8.56L208.16-8.56Q208.16-13.44 202.50-18.91L202.50-18.91L199.25-22.06L199.25-22.06Q194.97-26.19 193.41-28.69L193.41-28.69L193.41-28.69Q190.31-33.63 190.31-38.50L190.31-38.50L190.31-38.50Q190.31-42.47 192.88-45.16L192.88-45.16L192.88-45.16Q195.97-48.44 201.78-48.44L201.78-48.44L201.78-48.44Q204.06-48.44 205.22-48.22L205.22-48.22L205.22-48.22Q207.38-47.81 208.09-47.81L208.09-47.81L208.09-47.81Q209.91-47.81 210.91-48.94L210.91-48.94L210.91-48.94Q211.28-49.34 211.72-50L211.72-50L211.72-50Q214-48.72 214-40.59L214-40.59L214-40.59Q214-35.41 212.97-32.94L212.97-32.94L212.97-32.94Q212.63-32.09 212.19-31.88L212.19-31.88L212.19-31.88Q211.69-36.59 209.13-40.31L209.13-40.31L209.13-40.31Q206.13-44.69 202.19-44.69L202.19-44.69L202.19-44.69Q198.81-44.69 198.03-41.59L198.03-41.59L198.03-41.59Q197.81-40.72 197.81-39.42L197.81-39.42L197.81-39.42Q197.81-38.13 198.59-36.47L198.59-36.47L198.59-36.47Q199.38-34.81 200.64-33.17L200.64-33.17L200.64-33.17Q201.91-31.53 203.56-29.88L203.56-29.88L203.56-29.88Q208.56-24.75 210.20-22.94L210.20-22.94L210.20-22.94Q211.84-21.13 213.13-19.19L213.13-19.19L213.13-19.19Q215.94-14.84 215.94-10.78L215.94-10.78L215.94-10.78Q215.94-5.88 212.13-2.66L212.13-2.66L212.13-2.66Q208.19 0.63 202 0.63L202 0.63L202 0.63Q196.88 0.63 193.19-1.94L193.19-1.94L193.19-1.94Q189.13-4.75 189.13-9.38L189.13-9.38L189.13-9.38Q190.34-13.72 194.44-15.75L194.44-15.75L194.44-15.75Q195.53-16.31 196.50-16.56ZM241.75-33.44L241.75-33.44L241.75-33.44Q242.53-31.56 242.53-29.33L242.53-29.33L242.53-29.33Q242.53-27.09 242.38-25.63L242.38-25.63L242.38-25.63Q242.22-24.16 241.91-22.78L241.91-22.78L241.91-22.78Q241.25-19.88 239.88-18.13L239.88-18.13L239.88-18.13Q238.50-26.63 235.41-28.44L235.41-28.44L235.41-28.44Q234.31-29.06 233.05-29.06L233.05-29.06L233.05-29.06Q231.78-29.06 230.84-28.47L230.84-28.47L230.84-28.47Q229.91-27.88 229.25-26.75L229.25-26.75L229.25-26.75Q227.91-24.50 227.91-20.92L227.91-20.92L227.91-20.92Q227.91-17.34 228.63-14.77L228.63-14.77L228.63-14.77Q229.34-12.19 230.52-10.14L230.52-10.14L230.52-10.14Q231.69-8.09 233.17-6.61L233.17-6.61L233.17-6.61Q234.66-5.13 236.16-4.13L236.16-4.13L236.16-4.13Q239.19-2.19 241.53-2.19L241.53-2.19L241.53-2.19Q241.41-1.38 240.72-0.59L240.72-0.59L240.72-0.59Q240.03 0.19 239.22 0.63L239.22 0.63L239.22 0.63Q235.91 0.63 231.63-1.63L231.63-1.63L231.63-1.63Q223.66-5.84 220.88-13.94L220.88-13.94L220.88-13.94Q219.84-16.91 219.84-20.02L219.84-20.02L219.84-20.02Q219.84-23.13 220.56-25.27L220.56-25.27L220.56-25.27Q221.28-27.41 222.66-28.94L222.66-28.94L222.66-28.94Q225.47-32.19 230.47-32.19L230.47-32.19L230.47-32.19Q232.16-32.19 233.75-31.97L233.75-31.97L233.75-31.97Q236.75-31.56 237.95-31.56L237.95-31.56L237.95-31.56Q239.16-31.56 240.09-31.89L240.09-31.89L240.09-31.89Q241.03-32.22 241.75-33.44ZM276.25 0L267.03 0L267.03 0Q268.47-4.94 268.47-16.97L268.47-16.97L268.47-16.97Q268.47-22 267.94-23.67L267.94-23.67L267.94-23.67Q267.41-25.34 266.61-26.11L266.61-26.11L266.61-26.11Q265.81-26.88 264.48-26.88L264.48-26.88L264.48-26.88Q263.16-26.88 262.08-26.38L262.08-26.38L262.08-26.38Q261-25.88 260.16-25.06L260.16-25.06L260.16-25.06Q258.56-23.56 257.56-21.06L257.56-21.06L257.56-15.09L257.56-15.09Q257.56-6.31 257.91-4.22L257.91-4.22L257.91-4.22Q258.31-1.47 258.75 0L258.75 0L249.53 0L249.53 0Q250.28-2.63 250.53-6.97L250.53-6.97L250.53-6.97Q251.09-17.84 251.09-22.98L251.09-22.98L251.09-22.98Q251.09-28.13 251.06-30.02L251.06-30.02L251.06-30.02Q251.03-31.91 250.97-33.78L250.97-33.78L250.97-33.78Q250.81-40.59 250.36-42.33L250.36-42.33L250.36-42.33Q249.91-44.06 249.52-44.86L249.52-44.86L249.52-44.86Q249.13-45.66 248.66-46.31L248.66-46.31L247.59-47.78L259-47.78L259-47.78Q258.13-44.63 257.98-41.91L257.98-41.91L257.98-41.91Q257.84-39.19 257.78-37.48L257.78-37.48L257.78-37.48Q257.72-35.78 257.66-33.91L257.66-33.91L257.66-33.91Q257.56-29.53 257.56-26.19L257.56-26.19L257.56-26.19Q260.03-30.34 264.09-31.69L264.09-31.69L264.09-31.69Q265.53-32.19 267.31-32.19L267.31-32.19L267.31-32.19Q269.09-32.19 270.55-31.42L270.55-31.42L270.55-31.42Q272-30.66 272.97-29.25L272.97-29.25L272.97-29.25Q274.97-26.41 274.97-21.47L274.97-21.47L274.97-18.13L274.97-18.13Q274.97-8.56 275.23-6.14L275.23-6.14L275.23-6.14Q275.50-3.72 275.59-2.94L275.59-2.94L275.59-2.94Q275.81-1.56 276.25 0L276.25 0ZM298-29.06L298-29.06Q295.19-29.06 293.95-26.25L293.95-26.25L293.95-26.25Q292.72-23.44 292.72-16.78L292.72-16.78L292.72-16.78Q292.72-2.50 298-2.50L298-2.50L298-2.50Q300.81-2.50 302.05-6.31L302.05-6.31L302.05-6.31Q303.28-10.13 303.28-16.78L303.28-16.78L303.28-16.78Q303.28-23.44 302.05-26.25L302.05-26.25L302.05-26.25Q300.81-29.06 298-29.06L298-29.06ZM284.84-17.97L284.84-17.97Q284.84-32.19 298-32.19L298-32.19L298-32.19Q311.16-32.19 311.16-17.97L311.16-17.97L311.16-17.97Q311.16-9.34 307.53-4.31L307.53-4.31L307.53-4.31Q304 0.63 298 0.63L298 0.63L298 0.63Q292 0.63 288.47-4.31L288.47-4.31L288.47-4.31Q284.84-9.34 284.84-17.97L284.84-17.97ZM332.50-29.06L332.50-29.06Q329.69-29.06 328.45-26.25L328.45-26.25L328.45-26.25Q327.22-23.44 327.22-16.78L327.22-16.78L327.22-16.78Q327.22-2.50 332.50-2.50L332.50-2.50L332.50-2.50Q335.31-2.50 336.55-6.31L336.55-6.31L336.55-6.31Q337.78-10.13 337.78-16.78L337.78-16.78L337.78-16.78Q337.78-23.44 336.55-26.25L336.55-26.25L336.55-26.25Q335.31-29.06 332.50-29.06L332.50-29.06ZM319.34-17.97L319.34-17.97Q319.34-32.19 332.50-32.19L332.50-32.19L332.50-32.19Q345.66-32.19 345.66-17.97L345.66-17.97L345.66-17.97Q345.66-9.34 342.03-4.31L342.03-4.31L342.03-4.31Q338.50 0.63 332.50 0.63L332.50 0.63L332.50 0.63Q326.50 0.63 322.97-4.31L322.97-4.31L322.97-4.31Q319.34-9.34 319.34-17.97L319.34-17.97ZM361.88-22.50L361.84-14.31L361.84-14.31Q361.84-4.19 363.06 0L363.06 0L353.84 0L353.84 0Q354.72-3.03 354.94-7.16L354.94-7.16L354.94-7.16Q355.41-17.13 355.41-22.63L355.41-22.63L355.41-22.63Q355.41-28.13 355.38-30.02L355.38-30.02L355.38-30.02Q355.34-31.91 355.31-33.81L355.31-33.81L355.31-33.81Q355.13-40.59 354.67-42.36L354.67-42.36L354.67-42.36Q354.22-44.13 353.83-44.92L353.83-44.92L353.83-44.92Q353.44-45.72 352.94-46.38L352.94-46.38L351.91-47.81L363.31-47.81L363.31-47.81Q362.44-44.66 362.30-41.77L362.30-41.77L362.30-41.77Q362.16-38.88 362.08-36.66L362.08-36.66L362.08-36.66Q362-34.44 361.94-32.03L361.94-32.03L361.94-32.03Q361.88-28.03 361.88-22.50L361.88-22.50Z" fill="#ffffff"></path></g></g><style>text {
  font-size: 64px;
  font-family: Arial Black;
  dominant-baseline: central;
  text-anchor: middle;
}</style></svg>