<?xml version="1.0" encoding="utf-8"?>
<!-- Generator: Adobe Illustrator 21.1.0, SVG Export Plug-In . SVG Version: 6.00 Build 0)  -->
<svg version="1.1" id="Layer_1" xmlns="http://www.w3.org/2000/svg" xmlns:xlink="http://www.w3.org/1999/xlink" x="0px" y="0px"
	 viewBox="0 0 234 235" style="enable-background:new 0 0 234 235;" xml:space="preserve">
<style type="text/css">
	.st0{fill:#ffffff;}
</style>
<g>
	<path class="st0" d="M233.6,116.4c-0.1-4.5-0.9-8.8-2.6-13l-25.2,25.2l0,0l-6,6l0,0l-35.1,35.1l-15.4,15.4l-15,15l-6,6
		c-3.4,3.4-7.3,5.3-11.5,5.6c-4.3-0.3-8.1-2.1-11.5-5.6l-6-6l-15-15l-15.4-15.4l-34.4-34.4l0,0l-6-6c-0.3-0.3-0.6-0.7-1-1L3,104
		c-1.7,4.2-2.5,8.6-2.6,13.1c0,0.2,0,0.4,0,0.6v0.1v0.1c0,0.2,0,0.4,0,0.6c0.1,4.6,1,9.1,2.7,13.4c0.1,0.2,0.2,0.5,0.3,0.7
		c0.2,0.4,0.3,0.7,0.5,1.1c2.2,4.9,5.5,9.5,9.9,14l0,0l72.1,72.1c4.8,4.8,9.7,8.3,14.9,10.7c0.4,0.2,0.7,0.3,1.1,0.5
		c0.2,0.1,0.5,0.2,0.7,0.3c4.3,1.8,8.8,2.7,13.4,2.7c0.2,0,0.4,0,0.6,0h0.1h0.1c0.2,0,0.4,0,0.6,0c4.6-0.1,9.1-1,13.4-2.7
		c0.2-0.1,0.5-0.2,0.7-0.3c0.4-0.2,0.7-0.3,1.1-0.5c5.2-2.4,10.1-5.9,14.9-10.7l72.1-72.1l0,0c4.7-4.7,8.2-9.6,10.6-14.8
		c0.2-0.4,0.3-0.7,0.5-1.1c0.1-0.2,0.2-0.5,0.3-0.7c1.8-4.3,2.7-8.8,2.7-13.4c0-0.2,0-0.4,0-0.6V117v-0.1
		C233.6,116.8,233.6,116.6,233.6,116.4z"/>
	<path class="st0" d="M199.2,99.6l3,3l16.4-16.4l-71.1-71.1c-4.8-4.8-9.7-8.3-14.9-10.7c-0.4-0.2-0.7-0.3-1.1-0.5
		c-0.2-0.1-0.5-0.2-0.7-0.3c-4.3-1.8-8.8-2.7-13.4-2.7c-0.2,0-0.4,0-0.6,0h-0.1h-0.1c-0.2,0-0.4,0-0.6,0c-4.6,0.1-9.1,1-13.4,2.7
		c-0.2,0.1-0.5,0.2-0.7,0.3c-0.4,0.2-0.7,0.3-1.1,0.5c-5.2,2.4-10.1,5.9-14.9,10.7L15.1,85.9l16.4,16.4l2-2l0,0l35.1-35.1L84,49.8
		l15-15l6-6c3.4-3.4,7.3-5.3,11.5-5.6c4.3,0.3,8.1,2.1,11.5,5.6l6,6l15,15l15.4,15.4L199.2,99.6L199.2,99.6z"/>
</g>
<rect x="106.6" y="107.1" transform="matrix(0.7071 -0.7071 0.7071 0.7071 -48.8067 117.144)" class="st0" width="20.8" height="20.8"/>
</svg>
