<svg id="Layer_1" data-name="Layer 1" xmlns="http://www.w3.org/2000/svg" viewBox="0 0 69.6 69.6"><defs><style>.cls-1{fill:#f5f5f5;stroke:#e6e6e6;stroke-miterlimit:10;}.cls-2{fill:#ecbf1d;}</style></defs><title>yellow</title><path class="cls-1" d="M40.5,5A34.3,34.3,0,1,1,6.2,39.3,34.29,34.29,0,0,1,40.5,5Zm0,9A25.4,25.4,0,1,1,15.1,39.4,25.44,25.44,0,0,1,40.5,14Z" transform="translate(-5.7 -4.5)"/><path class="cls-2" d="M40.5,5.5A33.85,33.85,0,1,0,74.3,39.4,33.84,33.84,0,0,0,40.5,5.5Zm0,8A25.85,25.85,0,1,1,14.6,39.3,25.91,25.91,0,0,1,40.5,13.5Z" transform="translate(-5.7 -4.5)"/></svg>